<svg xmlns="http://www.w3.org/2000/svg" viewBox="-82 0 464 465">
  <!-- Tree body — navy -->
  <path fill="#0a232d" d="M299.78,216.31c-56.53,0-103.78-40.58-114.43-94.24,21.52,13.1,46.75,20.66,73.72,20.66v-66.4C217.19,76.34,183.1,42.1,183.1,0h0s-66.43,0-66.43,0h0c0,42.1-34.09,76.34-75.98,76.34v66.4c26.97,0,52.21-7.56,73.73-20.67-10.65,53.67-57.91,94.25-114.43,94.25v66.4c44.19,0,84.78-15.78,116.45-42v90.4l33.45,13.16,33.45-13.16v-90.39c31.67,26.22,72.25,41.99,116.43,41.99v-66.4Z"/>
  <!-- Chevron base — olive -->
  <path fill="#6d7531" d="M150.21,383.35L.43,324.38v79.99l149.79,60.49,149.79-60.49v-79.99l-149.79,58.96Z"/>
</svg>
